<svg width="22" height="22" viewBox="0 0 22 22" fill="none" xmlns="http://www.w3.org/2000/svg" aria-hidden="true">
<g clip-path="url(#clip0_1216_15903)">
<path fill-rule="evenodd" clip-rule="evenodd" d="M1.375 19.25C1.375 19.6147 1.51987 19.9644 1.77773 20.2223C2.03559 20.4801 2.38533 20.625 2.75 20.625H19.25C19.6147 20.625 19.9644 20.4801 20.2223 20.2223C20.4801 19.9644 20.625 19.6147 20.625 19.25V2.75C20.625 2.38533 20.4801 2.03559 20.2223 1.77773C19.9644 1.51987 19.6147 1.375 19.25 1.375H2.75C2.38533 1.375 2.03559 1.51987 1.77773 1.77773C1.51987 2.03559 1.375 2.38533 1.375 2.75V19.25ZM22 19.25C22 19.9793 21.7103 20.6788 21.1945 21.1945C20.6788 21.7103 19.9793 22 19.25 22H2.75C2.02065 22 1.32118 21.7103 0.805456 21.1945C0.289732 20.6788 0 19.9793 0 19.25V2.75C0 2.02065 0.289732 1.32118 0.805456 0.805456C1.32118 0.289732 2.02065 0 2.75 0H19.25C19.9793 0 20.6788 0.289732 21.1945 0.805456C21.7103 1.32118 22 2.02065 22 2.75V19.25ZM15.8125 11.6875C15.9948 11.6875 16.1697 11.6151 16.2986 11.4861C16.4276 11.3572 16.5 11.1823 16.5 11C16.5 10.8177 16.4276 10.6428 16.2986 10.5139C16.1697 10.3849 15.9948 10.3125 15.8125 10.3125H7.84713L10.7992 7.36175C10.8632 7.29783 10.9139 7.22194 10.9485 7.13843C10.9831 7.05491 11.0009 6.9654 11.0009 6.875C11.0009 6.7846 10.9831 6.69509 10.9485 6.61157C10.9139 6.52806 10.8632 6.45217 10.7992 6.38825C10.7353 6.32433 10.6594 6.27362 10.5759 6.23903C10.4924 6.20444 10.4029 6.18663 10.3125 6.18663C10.2221 6.18663 10.1326 6.20444 10.0491 6.23903C9.96556 6.27362 9.88967 6.32433 9.82575 6.38825L5.70075 10.5133C5.63672 10.5771 5.58593 10.653 5.55127 10.7365C5.51661 10.82 5.49877 10.9096 5.49877 11C5.49877 11.0904 5.51661 11.18 5.55127 11.2635C5.58593 11.347 5.63672 11.4229 5.70075 11.4867L9.82575 15.6118C9.88967 15.6757 9.96556 15.7264 10.0491 15.761C10.1326 15.7956 10.2221 15.8134 10.3125 15.8134C10.4029 15.8134 10.4924 15.7956 10.5759 15.761C10.6594 15.7264 10.7353 15.6757 10.7992 15.6118C10.8632 15.5478 10.9139 15.4719 10.9485 15.3884C10.9831 15.3049 11.0009 15.2154 11.0009 15.125C11.0009 15.0346 10.9831 14.9451 10.9485 14.8616C10.9139 14.7781 10.8632 14.7022 10.7992 14.6382L7.84713 11.6875H15.8125Z" fill="#FDD023"/>
</g>
<defs>
<clipPath id="clip0_1216_15903">
<rect width="22" height="22" fill="white" transform="matrix(-1 0 0 -1 22 22)"/>
</clipPath>
</defs>
</svg>
