<svg width="60" height="60" viewBox="0 0 60 60" fill="none" xmlns="http://www.w3.org/2000/svg">
<g clip-path="url(#clip0_4182_82)">
<path d="M12.6997 33.9881C16.2537 33.9881 19.1337 31.1285 19.1337 27.5949C19.1337 24.0613 16.2537 21.2017 12.6997 21.2017C9.14563 21.2017 6.26562 24.0613 6.26562 27.5949C6.26562 31.1285 9.14563 33.9881 12.6997 33.9881Z" fill="#461D7C"/>
<path d="M47.311 33.9881C50.865 33.9881 53.745 31.1285 53.745 27.5949C53.745 24.0613 50.865 21.2017 47.311 21.2017C43.757 21.2017 40.877 24.0613 40.877 27.5949C40.877 31.1285 43.757 33.9881 47.311 33.9881Z" fill="#461D7C"/>
<path d="M12.3931 17.3617C12.291 17.3617 12.1889 17.3515 12.0766 17.3208L8.66549 16.463C7.98123 16.2894 7.57272 15.6051 7.73613 14.9209C7.90974 14.2468 8.60421 13.8281 9.28847 14.0017L12.6995 14.8596C13.3838 15.0332 13.7923 15.7174 13.6289 16.4017C13.4859 16.9736 12.9651 17.3617 12.3931 17.3617Z" fill="#BFA0E9"/>
<path d="M19.7568 16.9328C19.43 16.9328 19.1134 16.8102 18.858 16.5651L11.3517 9.20171C10.8512 8.7115 10.841 7.90469 11.3414 7.41448C11.8317 6.91405 12.6385 6.91405 13.1491 7.40427L20.6555 14.7677C21.1559 15.2579 21.1661 16.0647 20.6657 16.5549C20.4206 16.8102 20.0836 16.9328 19.7568 16.9328Z" fill="#BFA0E9"/>
<path d="M23.5254 11.2034C23.0352 11.2034 22.5552 10.9174 22.351 10.4374L20.1654 5.37191C19.8897 4.72851 20.1859 3.98298 20.8395 3.70723C21.4829 3.43149 22.2386 3.72766 22.5144 4.37106L24.6999 9.43659C24.9757 10.08 24.6795 10.8255 24.0259 11.1013C23.8625 11.1728 23.6888 11.2034 23.5254 11.2034Z" fill="#BFA0E9"/>
<path d="M30.0207 13.0417C29.3161 13.0417 28.7441 12.4698 28.7441 11.7753V1.26638C28.7441 0.561702 29.3161 0 30.0207 0C30.7254 0 31.2973 0.571915 31.2973 1.26638V11.7753C31.2973 12.48 30.7254 13.0417 30.0207 13.0417Z" fill="#BFA0E9"/>
<path d="M36.4238 11.2238C36.2502 11.2238 36.0664 11.183 35.8928 11.1115C35.2494 10.8255 34.9634 10.0698 35.2596 9.43659L37.6187 4.28936C37.9149 3.65617 38.6707 3.37021 39.3038 3.65617C39.9473 3.94212 40.2332 4.69787 39.937 5.33106L37.5779 10.4783C37.3634 10.9481 36.9038 11.2238 36.4136 11.2238H36.4238Z" fill="#BFA0E9"/>
<path d="M40.3864 16.7796C40.0596 16.7796 39.7328 16.657 39.4775 16.4017C38.977 15.9013 38.9872 15.1047 39.4775 14.6145L46.8409 7.35319C47.3413 6.86298 48.1481 6.86298 48.6485 7.35319C49.1489 7.85362 49.1387 8.65022 48.6485 9.14043L41.2851 16.4017C41.04 16.6468 40.7132 16.7694 40.3864 16.7694V16.7796Z" fill="#BFA0E9"/>
<path d="M47.4233 17.28C46.831 17.28 46.3101 16.8715 46.1773 16.2792C46.0344 15.5949 46.4633 14.9209 47.1578 14.7779L50.7527 14.0119C51.4369 13.8689 52.1212 14.2979 52.2642 14.9821C52.4071 15.6664 51.9782 16.3404 51.2837 16.4834L47.6888 17.2494C47.5969 17.2698 47.505 17.28 47.4233 17.28Z" fill="#BFA0E9"/>
<path d="M35.0147 28.5855C37.7722 25.8485 37.7722 21.4162 35.0147 18.6791C32.2573 15.9421 27.7943 15.9421 25.0368 18.6791C22.2794 21.4162 22.2794 25.8485 25.0368 28.5855C27.7943 31.3225 32.2573 31.3225 35.0147 28.5855Z" fill="#BFA0E9"/>
<path d="M16.1312 45.8451C16.1312 43.2408 16.8665 40.7387 18.2248 38.5736C17.6733 38.1957 17.1014 37.8485 16.4784 37.5932C15.3039 37.103 14.0069 36.8272 12.6486 36.8374C7.30735 36.8681 2.99756 41.2085 2.99756 46.5191V56.5583C2.99756 57.0689 3.41628 57.4774 3.92692 57.4774H4.05969C4.80522 57.4774 5.41798 56.8749 5.41798 56.1293V46.9379C5.41798 46.3047 5.93884 45.794 6.57203 45.794C6.88862 45.794 7.17458 45.9268 7.38905 46.131C7.5933 46.3353 7.72607 46.6213 7.72607 46.9379V56.1293C7.72607 56.8749 8.33884 57.4774 9.08437 57.4774H16.1312V45.8553V45.8451Z" fill="#461D7C"/>
<path d="M42.5719 44.8851C42.5719 44.7625 42.5412 44.6298 42.531 44.5072C42.5106 44.3438 42.5004 44.1804 42.48 44.0068C42.4595 43.8434 42.4187 43.68 42.3881 43.5064C42.3676 43.3838 42.3472 43.2715 42.3166 43.1489C42.2757 42.9549 42.2247 42.771 42.1736 42.577C42.1532 42.4953 42.1327 42.4136 42.1021 42.3319C42.0408 42.1174 41.9693 41.9132 41.8978 41.7089C41.8774 41.6476 41.857 41.5966 41.8366 41.5353C41.7549 41.3106 41.663 41.0859 41.571 40.8715C41.5608 40.8408 41.5404 40.8102 41.5302 40.7693C41.4281 40.5344 41.3157 40.2996 41.2034 40.0749C41.2034 40.0647 41.1932 40.0442 41.183 40.034C41.0604 39.7991 40.9276 39.5642 40.7847 39.3293C39.4366 37.103 37.4144 35.3055 34.8919 34.2434C33.4825 33.651 32.0017 33.3242 30.4698 33.2732C30.051 33.2528 29.4995 33.2732 29.4995 33.2732C25.1387 33.4366 21.3395 35.8468 19.2051 39.36C18.7966 40.0238 18.4595 40.7285 18.1838 41.474C18.143 41.5762 18.1021 41.6885 18.0715 41.7906C18 41.9847 17.9387 42.1787 17.8774 42.3728C17.7957 42.6689 17.714 42.9651 17.6527 43.2613C17.6323 43.3838 17.6119 43.5064 17.5915 43.6187C17.5506 43.874 17.5098 44.1191 17.4791 44.3745C17.4689 44.4868 17.4485 44.6093 17.4383 44.7217C17.4076 45.0893 17.3872 45.4468 17.3872 45.8247V58.3557C17.3872 59.2545 18.1225 59.9796 19.0315 59.9796H19.1949C20.4 59.9796 21.3702 59.0093 21.3702 57.8145V46.3353C21.3702 46.2025 21.4008 46.0902 21.4417 45.9779C21.4825 45.8859 21.5336 45.8145 21.5949 45.743C21.6051 45.7225 21.6153 45.7021 21.6357 45.6919C21.7991 45.5285 22.0238 45.4162 22.2791 45.4059C22.2893 45.4059 22.3098 45.4059 22.32 45.4059C22.5753 45.4059 22.8204 45.5081 22.994 45.6817C23.1778 45.8655 23.2698 46.1004 23.2698 46.3557V57.8349C23.2698 59.0298 24.2502 60 25.4451 60H34.5447C35.7498 60 36.72 59.0298 36.72 57.8349V46.3762C36.72 45.8451 37.1489 45.4059 37.6698 45.4059C37.9251 45.4059 38.1702 45.5081 38.3438 45.6817C38.5276 45.8655 38.6195 46.1004 38.6195 46.3557V57.8349C38.6195 59.0298 39.6 60 40.7949 60H40.8868C41.7957 60 42.531 59.2647 42.531 58.3762V45.7838C42.531 45.4774 42.5208 45.1813 42.5004 44.8851H42.5719Z" fill="#BFA0E9"/>
<path d="M51.0793 37.583C49.9049 37.0927 48.6079 36.817 47.2496 36.8272C45.2274 36.8374 43.3585 37.4706 41.8062 38.5327C43.1338 40.6672 43.8896 43.1591 43.8896 45.7838V57.457H50.9772C51.7227 57.457 52.3355 56.8544 52.3355 56.1089V46.9276C52.3355 46.2944 52.8462 45.7634 53.4793 45.7634C53.7959 45.7634 54.0921 45.8961 54.2964 46.1004C54.5006 46.3047 54.6334 46.5906 54.6334 46.9072V56.0987C54.6334 56.8442 55.2462 57.4468 55.9917 57.4468H56.0734C56.584 57.4468 57.0027 57.0383 57.0027 56.5276V46.4476C57.0027 42.4544 54.5619 39.0332 51.0793 37.5727V37.583Z" fill="#461D7C"/>
</g>
<defs>
<clipPath id="clip0_4182_82">
<rect width="54.0051" height="60" fill="white" transform="translate(2.99756)"/>
</clipPath>
</defs>
</svg>
