<svg width="58" height="58" viewBox="0 0 58 58" fill="none" xmlns="http://www.w3.org/2000/svg">
<g clip-path="url(#clip0_0_2884)">
<path d="M43.9346 48.6583L42.1334 49.2505C41.9667 49.2978 41.7956 49.327 41.6222 49.327C40.9941 49.327 40.4357 48.9826 40.152 48.4309L39.2896 46.74L38.5781 46.6837L34.9982 54.2917C34.7212 54.8704 35.2256 55.5121 35.8538 55.395L38.4273 54.9109C38.7583 54.8478 39.096 55.001 39.2626 55.2982L40.5257 57.5947C40.8365 58.1531 41.6493 58.1261 41.9262 57.5452L45.4927 49.971C45.4521 49.944 45.4094 49.9169 45.3688 49.8809L43.9346 48.6538V48.6583Z" fill="#461D7C"/>
<path d="M54.2962 46.6859L53.5645 46.7422L52.7089 48.4331C52.4252 48.9847 51.8601 49.3292 51.2386 49.3292C51.0653 49.3292 50.8941 49.3022 50.7275 49.2527L48.933 48.6673L47.5055 49.8876C47.465 49.9214 47.4222 49.9507 47.3817 49.9777L50.9482 57.5519C51.2184 58.1306 52.0312 58.1598 52.3419 57.6014L53.6118 55.3049C53.7784 55.0077 54.1094 54.8568 54.4471 54.9176L57.0206 55.4017C57.6488 55.5188 58.1441 54.8771 57.8762 54.2984L54.2962 46.6904V46.6859Z" fill="#461D7C"/>
<path d="M57.7568 36.7431C58.0833 36.3468 58.0833 35.7817 57.7568 35.3989L56.9643 34.478C56.7369 34.2101 56.6671 33.8273 56.7797 33.4873L57.1467 32.3548C57.302 31.8752 57.0769 31.3506 56.6243 31.1255L55.5638 30.5738C55.2531 30.4185 55.0415 30.092 55.0122 29.7385L54.9131 28.5362C54.8704 28.0273 54.4741 27.6311 53.9652 27.5883L52.7629 27.4892C52.3959 27.4599 52.0829 27.2483 51.9141 26.9376L51.3759 25.8613C51.1508 25.4088 50.6262 25.1971 50.1466 25.3525L49.0141 25.7195C48.6741 25.8321 48.2936 25.7623 48.0234 25.5214L47.1048 24.7423C46.722 24.4181 46.1569 24.4181 45.7606 24.7423L44.8555 25.5349C44.5718 25.7623 44.2048 25.8321 43.8648 25.7195L42.7187 25.3525C42.2369 25.1971 41.7145 25.4088 41.4736 25.8613L40.9355 26.9376C40.7801 27.2483 40.4537 27.4599 40.1002 27.4892L38.8978 27.5883C38.4025 27.6311 37.9927 28.0273 37.9499 28.5362L37.8644 29.7385C37.8351 30.092 37.6235 30.4027 37.2992 30.5738L36.2253 31.1255C35.7727 31.3506 35.561 31.8752 35.7164 32.3548L36.0834 33.5009C36.196 33.8408 36.1262 34.2236 35.8853 34.4915L35.122 35.3967C34.782 35.7794 34.782 36.3446 35.122 36.7408L35.901 37.646C36.1284 37.9139 36.1982 38.2832 36.0857 38.6366L35.7187 39.7827C35.5633 40.2645 35.7749 40.7869 36.2275 41.0143L37.3015 41.5659C37.6257 41.7348 37.8396 42.0455 37.8666 42.4012L37.9522 43.5901C37.995 44.0989 38.4048 44.5087 38.9001 44.538L40.0889 44.637C40.4559 44.6663 40.7689 44.8779 40.9378 45.2022L41.4759 46.2784C41.7168 46.731 42.2392 46.9426 42.721 46.7873L43.867 46.4045C44.207 46.2919 44.5875 46.3752 44.8577 46.6026L45.7628 47.3794C46.1591 47.7194 46.7242 47.7194 47.107 47.3794L48.0121 46.6026C48.2801 46.3752 48.6628 46.3054 49.0028 46.418L50.1489 46.785C50.6307 46.9404 51.153 46.7287 51.3782 46.2762L51.9298 45.1999C52.0852 44.8757 52.4117 44.6618 52.7652 44.6348L53.9675 44.5357C54.4763 44.5064 54.8726 44.0967 54.9154 43.5878L55.0145 42.399C55.0437 42.0455 55.2554 41.719 55.5661 41.5637L56.6266 41.012C57.0791 40.7869 57.3065 40.2623 57.1489 39.7804L56.7662 38.6344C56.6671 38.2944 56.7369 37.9274 56.9643 37.6437L57.7568 36.7386V36.7431ZM52.1708 35.2165L50.2322 37.3105C50.1894 37.4095 50.1624 37.5086 50.1331 37.6077L50.4731 40.4356C50.5721 41.1561 49.8359 41.6807 49.1852 41.3835L46.5959 40.1812H46.2852L43.6959 41.3835C43.0452 41.6807 42.3089 41.1561 42.3945 40.4356L42.748 37.6077C42.7052 37.5086 42.6782 37.4095 42.6489 37.3105L40.6968 35.2165C40.215 34.6942 40.4852 33.8296 41.1922 33.7035L44.0066 33.1519C44.0922 33.0956 44.162 33.0393 44.2475 32.9672L45.6345 30.4793C45.988 29.8421 46.8931 29.8421 47.2331 30.4793L48.6336 32.9672C48.7191 33.0393 48.7889 33.0933 48.8745 33.1519L51.6754 33.7035C52.3824 33.8296 52.6661 34.6942 52.1708 35.2165Z" fill="#461D7C"/>
<path d="M50.5946 -0.414307H4.48284C2.00839 -0.414307 0 1.58057 0 4.05503V36.0338C0 38.4948 2.00839 40.5032 4.48284 40.5032H32.8569C32.8006 39.9943 32.8569 39.4427 33.0258 38.9181L33.0956 38.7199L32.983 38.5781C31.7379 37.1348 31.7379 34.9846 32.983 33.5571L33.0956 33.4153L33.0258 33.2306C32.4314 31.3911 33.2509 29.4548 34.9351 28.606L35.1197 28.5204L35.1332 28.293C35.2886 26.4107 36.7746 24.9269 38.6682 24.7716L38.8663 24.7581L38.9519 24.6027L38.9654 24.5599L38.9789 24.5306C39.6589 23.2585 40.958 22.466 42.4012 22.4795C42.7975 22.4795 43.2073 22.5358 43.5901 22.6641L43.7747 22.7204L43.903 22.6213L43.9323 22.5921L43.9751 22.5628C44.6686 21.9819 45.5444 21.6712 46.436 21.6712C47.3276 21.6712 48.2463 21.9954 48.9398 22.5763L49.0951 22.7181L49.2797 22.6619C49.6625 22.5358 50.0588 22.4772 50.4686 22.4772C51.9388 22.4772 53.256 23.2833 53.9067 24.5982L53.9922 24.7535L54.2039 24.7671C54.5011 24.7963 54.7983 24.8526 55.0797 24.9517V4.05503C55.0797 1.58057 53.0714 -0.414307 50.5969 -0.414307H50.5946ZM25.5686 33.8949H8.82609C7.92096 33.8949 7.18696 33.1608 7.18696 32.2557C7.18696 31.3506 7.92096 30.6166 8.82609 30.6166H25.5686C26.4738 30.6166 27.2078 31.3506 27.2078 32.2557C27.2078 33.1608 26.4738 33.8949 25.5686 33.8949ZM27.4172 25.7532H8.82609C7.92096 25.7532 7.18696 25.0192 7.18696 24.1141C7.18696 23.209 7.92096 22.475 8.82609 22.475H27.4172C28.3223 22.475 29.0563 23.209 29.0563 24.1141C29.0563 25.0192 28.3223 25.7532 27.4172 25.7532ZM46.2514 17.6139H8.82609C7.92096 17.6139 7.18696 16.8799 7.18696 15.9747C7.18696 15.0696 7.92096 14.3356 8.82609 14.3356H46.2514C47.1565 14.3356 47.8905 15.0696 47.8905 15.9747C47.8905 16.8799 47.1565 17.6139 46.2514 17.6139ZM46.2514 9.47676H8.82609C7.92096 9.47676 7.18696 8.74276 7.18696 7.83763C7.18696 6.93251 7.92096 6.1985 8.82609 6.1985H46.2514C47.1565 6.1985 47.8905 6.93251 47.8905 7.83763C47.8905 8.74276 47.1565 9.47676 46.2514 9.47676Z" fill="#BFA0E9"/>
</g>
<defs>
<clipPath id="clip0_0_2884">
<rect width="58" height="58.4143" fill="white" transform="translate(0 -0.414307)"/>
</clipPath>
</defs>
</svg>
