<svg width="66" height="35" viewBox="0 0 66 35" fill="none" xmlns="http://www.w3.org/2000/svg">
<g clip-path="url(#clip0_41_266)">
<path fill-rule="evenodd" clip-rule="evenodd" d="M0.0260586 18.9109L4.30662 1.03565C4.36627 0.765125 4.54152 0.550185 4.75592 0.422333C4.97778 0.292628 5.23693 0.233334 5.50912 0.298186L12.1127 1.85835C12.3793 1.92135 12.5993 2.08997 12.7298 2.31047C12.8659 2.52356 12.9125 2.79594 12.8528 3.05535L8.57226 20.9324C8.50887 21.1918 8.33921 21.4179 8.13041 21.5457C7.90109 21.6754 7.64194 21.7347 7.36788 21.6699L0.766207 20.1042C0.499605 20.0449 0.277746 19.8707 0.145377 19.6576C0.00927943 19.4445 -0.0373294 19.1721 0.0223299 18.9127H0.0260586V18.9109Z" fill="#BFA0E9"/>
<path fill-rule="evenodd" clip-rule="evenodd" d="M50.5817 3.27225C50.6787 3.03322 50.8595 2.83867 51.1131 2.72193L57.3512 0.0777987C57.6047 -0.0259654 57.8807 -0.0259654 58.1212 0.070387C58.3617 0.161181 58.5574 0.350179 58.6711 0.602178L65.9197 17.5028C66.0242 17.7473 66.0242 18.0271 65.9272 18.2606C65.834 18.4922 65.6457 18.6997 65.3921 18.8072L59.3498 21.3606C58.2293 21.8423 58.1118 21.5681 57.7073 20.6157L57.683 20.5656L50.5836 4.0338C50.4736 3.77439 50.4866 3.50943 50.578 3.2704L50.5817 3.27225Z" fill="#9C7DC5"/>
<path fill-rule="evenodd" clip-rule="evenodd" d="M19.613 6.00708H19.7304C20.4799 5.94037 21.22 5.81808 21.9546 5.64576C22.6817 5.47529 23.42 5.24367 24.1396 4.95276L24.175 4.93979C25.7094 4.24309 27.2438 3.84286 28.7931 3.74465C30.3367 3.6483 31.8842 3.85583 33.4465 4.35241L37.3374 5.72358C37.6282 5.81993 37.7792 5.87738 37.9097 5.91814C38.4765 6.11826 38.7282 6.19423 38.8587 6.3054C38.9687 6.3962 39.075 6.56296 39.2838 6.87981C39.4124 7.09475 39.5877 7.36528 39.8878 7.79886C40.5049 8.69198 41.0512 9.45909 41.5266 10.1261C42.0356 10.8228 42.47 11.4047 42.8335 11.8642C43.2045 12.3293 43.3089 12.685 43.2381 12.9241C43.184 13.0667 43.0349 13.2039 42.8149 13.3076C42.5259 13.4484 42.1306 13.5337 41.6683 13.5522C39.9251 13.63 37.4008 12.8351 35.5346 10.9211C34.8186 10.1762 33.6795 9.93159 32.4975 9.90009C31.4031 9.87415 30.2789 10.0279 29.4512 10.1502C27.9093 10.3707 22.2566 17.1654 18.8877 21.2085C18.1662 22.0794 17.5529 22.8187 17.1222 23.3153C15.0099 22.8057 14.4562 22.0553 13.9025 21.303C13.2574 20.4229 12.6142 19.552 10.39 18.9702L12.7913 8.92174L13.6489 5.33447L19.6148 6.00708H19.613Z" fill="#BFA0E9"/>
<path fill-rule="evenodd" clip-rule="evenodd" d="M49.8267 23.1801L49.1816 22.5261C48.6745 22.011 47.9847 21.7497 47.308 21.7367C46.6238 21.7367 45.9414 21.9887 45.4212 22.4946C45.026 22.8911 44.7762 23.3747 44.6811 23.8843L44.5375 23.7434L44.5319 23.736C44.0193 23.2265 43.3425 22.9597 42.6657 22.9597C41.9815 22.9541 41.3048 23.2116 40.7865 23.7175L40.766 23.7249C40.257 24.24 39.9941 24.9071 39.9941 25.5797C39.9922 25.7798 40.0128 25.9799 40.05 26.1745H40.0183C39.3416 26.1745 38.6592 26.4265 38.1391 26.9231L38.126 26.936C37.6133 27.44 37.3449 28.1126 37.3449 28.7964V28.8279C37.1435 28.7778 36.944 28.7593 36.7352 28.7538C36.0585 28.7538 35.3742 28.9983 34.856 29.5135L34.8354 29.5209C34.3265 30.0304 34.0673 30.703 34.0636 31.3757C34.0561 31.8611 34.1866 32.3447 34.4458 32.7654L32.436 34.5831C32.1638 34.7369 31.8506 34.8036 31.5449 34.7906C31.2261 34.7721 30.8998 34.6609 30.6406 34.4534C30.374 34.2496 30.1857 33.9698 30.0869 33.664C30.0049 33.4194 29.9769 33.1489 30.0291 32.8765C30.2193 32.7283 30.3927 32.5652 30.5381 32.3762L34.5521 28.0126C34.9604 27.503 34.2799 26.7322 33.6945 27.2307L29.6805 31.5943L29.6451 31.6258C29.3542 32.0094 28.9441 32.2521 28.5004 32.3559C28.0511 32.4596 27.5775 32.4152 27.1468 32.1984C26.9324 32.102 26.7516 31.9723 26.5969 31.8259C26.4384 31.6629 26.3023 31.4831 26.1979 31.2812C26.1587 31.1904 26.1121 31.0959 26.0804 30.9958C26.0543 30.8995 26.0357 30.7975 26.017 30.6975C26.4067 30.3806 26.9474 29.8488 27.544 29.2355C28.9124 27.8329 30.6164 25.9651 31.241 25.261C31.6455 24.6384 30.9557 24.0566 30.374 24.4902C29.7513 25.1961 28.0511 27.0565 26.7106 28.4369C25.9294 29.2318 25.2806 29.8637 25.0849 29.9619C24.643 30.175 24.2049 30.2917 23.7966 30.2787C23.4331 30.2658 23.0695 30.149 22.7302 29.9044C22.3219 29.6061 22.0161 29.2059 21.8446 28.7482C21.7029 28.3387 21.6582 27.8792 21.7477 27.4345C23.5878 25.513 25.4298 23.6063 27.2718 21.683C27.6987 21.0697 27.0499 20.373 26.4328 20.8881L20.7969 26.7526L20.7857 26.7785C20.4333 27.1806 19.9598 27.4067 19.4694 27.4512C18.9754 27.4919 18.4739 27.3529 18.0581 27.0176C17.6498 26.6748 17.4131 26.2097 17.3683 25.7187C17.318 25.2276 17.4597 24.7218 17.7859 24.316L17.7803 24.3086C18.2539 23.7805 18.9511 22.9448 19.7882 21.935C23.0415 18.0234 28.5265 11.4492 29.619 11.2862C30.4132 11.1769 31.4852 11.0212 32.4752 11.0416C33.3868 11.0601 34.2407 11.2362 34.7049 11.7068C36.8191 13.8803 39.7163 14.7845 41.713 14.6937C42.3357 14.6696 42.8839 14.5455 43.3201 14.338C43.8291 14.1063 44.1777 13.745 44.3343 13.2725C44.5431 12.6777 44.3884 11.9551 43.7638 11.1528C43.3705 10.6618 42.9435 10.0873 42.4756 9.43882C41.9815 8.74767 41.4334 7.98427 40.848 7.13192C40.6149 6.80766 40.4248 6.4908 40.27 6.25734C40.0034 5.83672 39.8617 5.60325 39.5989 5.40499C39.308 5.16596 38.9874 5.05664 38.2994 4.81761C38.0962 4.7509 37.8687 4.67493 37.7196 4.62305L33.8417 3.25188H33.8231C33.4782 3.14071 33.1333 3.04435 32.7884 2.95912C33.1967 2.8813 33.6199 2.83683 34.0561 2.82386C35.2587 2.79236 36.5562 3.02582 37.9601 3.515C39.7816 4.30435 41.8324 4.85467 43.8664 5.20487C45.9806 5.56619 48.1096 5.69404 49.9945 5.63846L55.8504 19.2871C54.5305 20.0042 53.1844 20.7936 52.0136 21.557C51.1523 22.1184 50.3991 22.6762 49.8342 23.1727L49.8267 23.1801Z" fill="#9C7DC5"/>
<path fill-rule="evenodd" clip-rule="evenodd" d="M39.8542 34.585C39.5522 34.8648 39.1756 35.0056 38.799 35.0001C38.4168 35.0001 38.0309 34.8518 37.7457 34.5591L35.652 32.4467L35.6315 32.4245C35.3537 32.141 35.2176 31.7648 35.2232 31.385C35.2232 31.0014 35.3723 30.6216 35.6594 30.3344L35.68 30.3288C35.9633 30.0398 36.3567 29.9082 36.7259 29.9082C37.095 29.9082 37.494 30.0564 37.7792 30.3548L39.1141 31.6944L40.0183 32.6246C40.2141 32.8877 40.3129 33.2064 40.3036 33.5177C40.3036 33.9031 40.1619 34.2811 39.8617 34.5702L39.8561 34.5831L39.8542 34.585Z" fill="#BFA0E9"/>
<path fill-rule="evenodd" clip-rule="evenodd" d="M43.9037 32.7988C43.6128 33.0785 43.2213 33.2268 42.8447 33.2138C42.4588 33.2138 42.0766 33.0656 41.7969 32.7802H41.7914V32.7747L40.8722 31.8426C40.8219 31.7796 40.7697 31.7203 40.7119 31.6573L40.6914 31.6444L38.8662 29.7952C38.6182 29.5154 38.4989 29.1633 38.4989 28.8057C38.5064 28.4184 38.6425 28.0423 38.9426 27.7514H38.9482L38.9426 27.7458C39.2428 27.466 39.6194 27.3252 40.009 27.3252C40.3595 27.3252 40.7119 27.453 40.9897 27.6995L41.5117 28.2276L43.9186 30.6771C44.2057 30.9755 44.3548 31.3627 44.3492 31.7444C44.3492 32.128 44.2001 32.5023 43.913 32.7858L43.9055 32.7969L43.9037 32.7988Z" fill="#BFA0E9"/>
<path fill-rule="evenodd" clip-rule="evenodd" d="M46.4279 30.918C46.0457 30.918 45.6598 30.7698 45.369 30.4789L45.3615 30.4659L41.8882 26.9602V26.9546H41.8826L41.575 26.6433C41.2842 26.3598 41.1481 25.9707 41.1481 25.5834C41.1537 25.2091 41.3028 24.82 41.5899 24.5365L41.6104 24.531C41.8938 24.2512 42.2797 24.1104 42.6563 24.1104C43.046 24.1159 43.4244 24.2641 43.7097 24.5569L43.7227 24.568L47.5092 28.3832C47.7945 28.6815 47.9399 29.0614 47.9399 29.4431C47.9343 29.8229 47.7852 30.2065 47.4906 30.49L47.4776 30.4956V30.5085C47.183 30.7883 46.8064 30.9143 46.4298 30.9143L46.4279 30.918Z" fill="#BFA0E9"/>
<path fill-rule="evenodd" clip-rule="evenodd" d="M49.3774 27.9848C48.9877 27.9848 48.6093 27.8365 48.3166 27.5382L48.311 27.5327H48.3035L46.2229 25.4314C45.9339 25.1387 45.7922 24.7514 45.7922 24.3771C45.7922 24.0028 45.9414 23.6137 46.2415 23.3247C46.5268 23.0393 46.9183 22.8911 47.3005 22.8966C47.6864 22.8966 48.0686 23.0449 48.3613 23.3432L50.4494 25.45L50.4624 25.4629C50.744 25.752 50.8857 26.1281 50.8857 26.5099C50.8801 26.8916 50.7309 27.2733 50.4363 27.5568L50.4233 27.5642V27.5697C50.1325 27.8551 49.754 27.9848 49.3774 27.9848Z" fill="#BFA0E9"/>
</g>
<defs>
<clipPath id="clip0_41_266">
<rect width="66" height="35" fill="white"/>
</clipPath>
</defs>
</svg>
