<svg width="66" height="66" viewBox="0 0 66 66" fill="none" xmlns="http://www.w3.org/2000/svg">
<g clip-path="url(#clip0_41_266)">
<path fill-rule="evenodd" clip-rule="evenodd" d="M0.0281338 34.4114L4.30869 16.5361C4.36835 16.2656 4.5436 16.0507 4.758 15.9228C4.97986 15.7931 5.239 15.7338 5.5112 15.7987L12.1147 17.3588C12.3813 17.4218 12.6013 17.5905 12.7318 17.811C12.8679 18.024 12.9145 18.2964 12.8549 18.5558L8.57433 36.4329C8.51094 36.6923 8.34129 36.9184 8.13248 37.0462C7.90317 37.1759 7.64402 37.2352 7.36996 37.1704L0.768282 35.6046C0.50168 35.5454 0.279822 35.3712 0.147452 35.1581C0.0113546 34.945 -0.0352542 34.6726 0.0244051 34.4132H0.0281338V34.4114Z" fill="#BFA0E9"/>
<path fill-rule="evenodd" clip-rule="evenodd" d="M50.5838 18.7727C50.6807 18.5337 50.8616 18.3392 51.1151 18.2224L57.3533 15.5783C57.6068 15.4745 57.8827 15.4745 58.1232 15.5709C58.3637 15.6617 58.5595 15.8507 58.6732 16.1027L65.9218 33.0032C66.0262 33.2478 66.0262 33.5276 65.9293 33.7611C65.8361 33.9927 65.6478 34.2002 65.3942 34.3077L59.3518 36.861C58.2314 37.3428 58.1139 37.0686 57.7093 36.1162L57.6851 36.0661L50.5857 19.5343C50.4757 19.2749 50.4887 19.0099 50.5801 18.7709L50.5838 18.7727Z" fill="#9C7DC5"/>
<path fill-rule="evenodd" clip-rule="evenodd" d="M19.615 21.5076H19.7325C20.482 21.4409 21.2221 21.3186 21.9567 21.1462C22.6838 20.9758 23.4221 20.7442 24.1417 20.4533L24.1771 20.4403C25.7115 19.7436 27.2459 19.3433 28.7951 19.2451C30.3388 19.1488 31.8862 19.3563 33.4486 19.8529L37.3395 21.2241C37.6303 21.3204 37.7813 21.3779 37.9118 21.4186C38.4786 21.6187 38.7303 21.6947 38.8608 21.8059C38.9708 21.8967 39.077 22.0634 39.2859 22.3803C39.4145 22.5952 39.5897 22.8658 39.8899 23.2994C40.507 24.1925 41.0533 24.9596 41.5287 25.6266C42.0376 26.3233 42.472 26.9052 42.8356 27.3647C43.2066 27.8298 43.311 28.1855 43.2401 28.4246C43.1861 28.5672 43.0369 28.7043 42.8169 28.8081C42.528 28.9489 42.1327 29.0342 41.6704 29.0527C39.9272 29.1305 37.4029 28.3356 35.5366 26.4215C34.8207 25.6767 33.6816 25.4321 32.4996 25.4006C31.4052 25.3746 30.281 25.5284 29.4532 25.6507C27.9114 25.8712 22.2587 32.6659 18.8898 36.709C18.1683 37.5799 17.5549 38.3192 17.1243 38.8158C15.012 38.3062 14.4582 37.5558 13.9045 36.8035C13.2595 35.9234 12.6163 35.0525 10.3921 34.4707L12.7934 24.4222L13.651 20.835L19.6169 21.5076H19.615Z" fill="#BFA0E9"/>
<path fill-rule="evenodd" clip-rule="evenodd" d="M49.8288 38.6806L49.1837 38.0266C48.6766 37.5114 47.9868 37.2502 47.31 37.2372C46.6258 37.2372 45.9435 37.4892 45.4233 37.9951C45.0281 38.3916 44.7783 38.8752 44.6832 39.3847L44.5396 39.2439L44.534 39.2365C44.0213 38.727 43.3446 38.4601 42.6678 38.4601C41.9836 38.4546 41.3068 38.7121 40.7885 39.218L40.768 39.2254C40.2591 39.7405 39.9962 40.4076 39.9962 41.0802C39.9943 41.2803 40.0148 41.4804 40.0521 41.675H40.0204C39.3437 41.675 38.6613 41.927 38.1412 42.4236L38.1281 42.4365C37.6154 42.9405 37.3469 43.6131 37.3469 44.2969V44.3284C37.1456 44.2783 36.9461 44.2598 36.7373 44.2542C36.0605 44.2542 35.3763 44.4988 34.858 45.014L34.8375 45.0214C34.3286 45.5309 34.0694 46.2035 34.0657 46.8761C34.0582 47.3616 34.1887 47.8452 34.4479 48.2658L32.4381 50.0836C32.1659 50.2374 31.8527 50.3041 31.5469 50.2911C31.2281 50.2726 30.9019 50.1614 30.6427 49.9539C30.3761 49.75 30.1878 49.4702 30.089 49.1645C30.007 48.9199 29.979 48.6494 30.0312 48.377C30.2214 48.2288 30.3948 48.0657 30.5402 47.8767L34.5541 43.5131C34.9624 43.0035 34.2819 42.2327 33.6965 42.7311L29.6826 47.0948L29.6472 47.1263C29.3563 47.5098 28.9462 47.7526 28.5024 47.8563C28.0531 47.9601 27.5796 47.9156 27.1489 47.6988C26.9345 47.6025 26.7537 47.4728 26.5989 47.3264C26.4405 47.1633 26.3044 46.9836 26.2 46.7816C26.1608 46.6909 26.1142 46.5964 26.0825 46.4963C26.0564 46.3999 26.0378 46.298 26.0191 46.198C26.4088 45.8811 26.9494 45.3493 27.546 44.736C28.9145 43.3333 30.6185 41.4656 31.243 40.7615C31.6476 40.1389 30.9578 39.5571 30.3761 39.9907C29.7534 40.6966 28.0531 42.557 26.7127 43.9374C25.9315 44.7323 25.2827 45.3642 25.0869 45.4624C24.6451 45.6754 24.207 45.7922 23.7987 45.7792C23.4351 45.7662 23.0716 45.6495 22.7323 45.4049C22.324 45.1066 22.0182 44.7064 21.8467 44.2487C21.705 43.8392 21.6603 43.3797 21.7498 42.935C23.5899 41.0135 25.4319 39.1068 27.2738 37.1835C27.7008 36.5701 27.052 35.8734 26.4349 36.3886L20.7989 42.2531L20.7877 42.279C20.4354 42.6811 19.9618 42.9072 19.4715 42.9516C18.9775 42.9924 18.4759 42.8534 18.0602 42.5181C17.6519 42.1753 17.4151 41.7102 17.3704 41.2192C17.32 40.7281 17.4617 40.2223 17.788 39.8165L17.7824 39.8091C18.256 39.281 18.9532 38.4453 19.7903 37.4355C23.0436 33.5239 28.5285 26.9497 29.6211 26.7867C30.4153 26.6774 31.4873 26.5217 32.4772 26.5421C33.3889 26.5606 34.2428 26.7366 34.707 27.2073C36.8212 29.3808 39.7184 30.285 41.7151 30.1942C42.3378 30.1701 42.8859 30.046 43.3222 29.8385C43.8312 29.6068 44.1798 29.2455 44.3364 28.773C44.5452 28.1782 44.3905 27.4556 43.7659 26.6533C43.3725 26.1622 42.9456 25.5878 42.4776 24.9393C41.9836 24.2482 41.4355 23.4848 40.8501 22.6324C40.617 22.3081 40.4269 21.9913 40.2721 21.7578C40.0055 21.3372 39.8638 21.1037 39.6009 20.9055C39.3101 20.6664 38.9894 20.5571 38.3015 20.3181C38.0983 20.2514 37.8708 20.1754 37.7217 20.1235L33.8438 18.7524H33.8252C33.4803 18.6412 33.1354 18.5448 32.7905 18.4596C33.1988 18.3818 33.622 18.3373 34.0582 18.3243C35.2607 18.2928 36.5583 18.5263 37.9622 19.0155C39.7836 19.8048 41.8344 20.3552 43.8685 20.7054C45.9826 21.0667 48.1117 21.1945 49.9966 21.1389L55.8525 34.7876C54.5326 35.5047 53.1865 36.2941 52.0157 37.0575C51.1543 37.6189 50.4011 38.1766 49.8362 38.6732L49.8288 38.6806Z" fill="#9C7DC5"/>
<path fill-rule="evenodd" clip-rule="evenodd" d="M39.8563 50.0855C39.5543 50.3653 39.1777 50.5061 38.8011 50.5005C38.4189 50.5005 38.033 50.3523 37.7477 50.0595L35.6541 47.9472L35.6336 47.925C35.3558 47.6415 35.2197 47.2653 35.2253 46.8855C35.2253 46.5019 35.3744 46.1221 35.6615 45.8349L35.682 45.8293C35.9654 45.5402 36.3588 45.4087 36.7279 45.4087C37.0971 45.4087 37.496 45.5569 37.7813 45.8552L39.1162 47.1949L40.0204 48.1251C40.2161 48.3882 40.315 48.7069 40.3056 49.0182C40.3056 49.4036 40.1639 49.7816 39.8638 50.0707L39.8582 50.0836L39.8563 50.0855Z" fill="#BFA0E9"/>
<path fill-rule="evenodd" clip-rule="evenodd" d="M43.9057 48.2992C43.6149 48.579 43.2234 48.7273 42.8468 48.7143C42.4609 48.7143 42.0787 48.5661 41.799 48.2807H41.7934V48.2752L40.8743 47.3431C40.824 47.2801 40.7718 47.2208 40.714 47.1578L40.6935 47.1449L38.8683 45.2956C38.6203 45.0158 38.501 44.6638 38.501 44.3062C38.5084 43.9189 38.6445 43.5428 38.9447 43.2519H38.9503L38.9447 43.2463C39.2449 42.9665 39.6215 42.8257 40.0111 42.8257C40.3616 42.8257 40.714 42.9535 40.9918 43.2L41.5138 43.7281L43.9207 46.1776C44.2078 46.476 44.3569 46.8632 44.3513 47.2449C44.3513 47.6285 44.2022 48.0028 43.9151 48.2863L43.9076 48.2974L43.9057 48.2992Z" fill="#BFA0E9"/>
<path fill-rule="evenodd" clip-rule="evenodd" d="M46.43 46.4185C46.0478 46.4185 45.6619 46.2703 45.371 45.9794L45.3636 45.9664L41.8903 42.4606V42.4551H41.8847L41.5771 42.1438C41.2862 41.8603 41.1501 41.4712 41.1501 41.0839C41.1557 40.7096 41.3049 40.3205 41.592 40.037L41.6125 40.0315C41.8959 39.7517 42.2818 39.6108 42.6584 39.6108C43.0481 39.6164 43.4265 39.7646 43.7118 40.0574L43.7248 40.0685L47.5113 43.8837C47.7966 44.182 47.942 44.5619 47.942 44.9436C47.9364 45.3234 47.7872 45.707 47.4927 45.9905L47.4796 45.996V46.009C47.1851 46.2888 46.8085 46.4148 46.4319 46.4148L46.43 46.4185Z" fill="#BFA0E9"/>
<path fill-rule="evenodd" clip-rule="evenodd" d="M49.3795 43.4853C48.9898 43.4853 48.6114 43.337 48.3186 43.0387L48.3131 43.0332H48.3056L46.225 40.9319C45.936 40.6392 45.7943 40.2519 45.7943 39.8776C45.7943 39.5033 45.9435 39.1142 46.2436 38.8251C46.5289 38.5398 46.9204 38.3916 47.3026 38.3971C47.6885 38.3971 48.0707 38.5454 48.3634 38.8437L50.4515 40.9505L50.4645 40.9634C50.746 41.2525 50.8877 41.6286 50.8877 42.0103C50.8821 42.392 50.733 42.7737 50.4384 43.0572L50.4254 43.0647V43.0702C50.1345 43.3556 49.7561 43.4853 49.3795 43.4853Z" fill="#BFA0E9"/>
</g>
<defs>
<clipPath id="clip0_41_266">
<rect width="66" height="66" fill="white"/>
</clipPath>
</defs>
</svg>
