<svg width="58" height="58" viewBox="0 0 58 58" fill="none" xmlns="http://www.w3.org/2000/svg">
<g clip-path="url(#clip0_45_497)">
<path d="M23.867 47.2225L14.1187 34.7321L30.2467 19.1604C30.9721 18.4604 31.734 17.8017 32.5322 17.1857C37.8288 13.098 44.4502 11.0855 51.1396 11.5285L56.673 11.8958L55.6577 17.3175C54.4305 23.8723 50.8266 29.7502 45.5301 33.8378C44.7318 34.4538 43.9004 35.0253 43.0392 35.549L23.867 47.2208V47.2225Z" fill="#F7F1FF"/>
<path d="M37.8337 31.5635C40.6812 31.5635 42.9895 29.2681 42.9895 26.4366C42.9895 23.6051 40.6812 21.3097 37.8337 21.3097C34.9863 21.3097 32.678 23.6051 32.678 26.4366C32.678 29.2681 34.9863 31.5635 37.8337 31.5635Z" fill="#BFA0E9"/>
<path d="M37.8337 30.2459C39.9494 30.2459 41.6645 28.5404 41.6645 26.4366C41.6645 24.3327 39.9494 22.6272 37.8337 22.6272C35.718 22.6272 34.0029 24.3327 34.0029 26.4366C34.0029 28.5404 35.718 30.2459 37.8337 30.2459Z" fill="#BFA0E9"/>
<path d="M14.1187 34.7321L5.63562 34.6069L17.6182 22.0244L31.3348 18.1096L14.1187 34.7321Z" fill="#683DA0"/>
<path d="M23.8669 47.2225L21.8828 55.4242L37.1149 47.0051L44.3326 34.7634L23.8669 47.2225Z" fill="#683DA0"/>
<path d="M16.5566 37.8547L11.5565 40.0452L18.0554 48.3721L21.4308 44.0999L16.5566 37.8547Z" fill="#683DA0"/>
<path d="M1.32446 46.2739L6.90253 46.9722L2.24696 53.9008L10.152 51.1356L9.44811 56.6808C12.845 54.0589 15.2961 50.4126 16.4323 46.2887L13.1828 42.1252C8.88334 42.1961 4.72298 43.652 1.32612 46.2722L1.32446 46.2739Z" fill="#BFA0E9"/>
<path d="M37.842 32.8777C39.2299 32.8777 40.6294 32.4363 41.8086 31.5272C43.1766 30.4715 44.0478 28.9497 44.2648 27.2419C44.4817 25.534 44.0163 23.8443 42.9547 22.4855C41.8931 21.1252 40.3628 20.2589 38.6453 20.0431C36.9278 19.8274 35.2285 20.2902 33.8605 21.3459C32.4925 22.4015 31.6213 23.9233 31.4044 25.6312C31.1874 27.339 31.6528 29.0288 32.7144 30.3875C33.9897 32.0213 35.9059 32.8777 37.8404 32.8777H37.842ZM34.0328 25.9606C34.1603 24.951 34.677 24.0518 35.4853 23.4276C36.2935 22.8034 37.2988 22.53 38.3124 22.6568C39.3276 22.7836 40.2319 23.2975 40.8596 24.1012C41.4873 24.9049 41.7622 25.9029 41.6347 26.9125C41.5072 27.9221 40.9905 28.8213 40.1822 29.4455C39.374 30.0697 38.3687 30.3431 37.3551 30.2162C36.3399 30.0894 35.4356 29.5756 34.8079 28.7719C34.1802 27.9682 33.9052 26.9701 34.0328 25.9606Z" fill="#271145"/>
<path d="M2.68589 55.1443L8.5687 53.0872L8.13478 56.5178C8.06853 57.0465 8.3269 57.5636 8.79229 57.8271C8.996 57.9424 9.2229 58 9.44814 58C9.73632 58 10.0228 57.9062 10.2613 57.7233C13.1911 55.4621 15.4883 52.4334 16.8911 49.0275L17.0103 49.1791C17.2604 49.5002 17.6447 49.688 18.0537 49.6896H18.0571C18.4645 49.6896 18.8471 49.5035 19.0988 49.1856L21.4258 46.2409L22.4311 47.5305L20.596 55.1179C20.4734 55.6268 20.6639 56.1588 21.0829 56.475C21.3181 56.6528 21.6013 56.7434 21.8845 56.7434C22.1048 56.7434 22.3267 56.6891 22.5288 56.5771L37.7608 48.158C37.9678 48.0427 38.1401 47.8763 38.261 47.6721L45.3876 35.5853C45.7122 35.3563 46.0335 35.1225 46.3465 34.8804C51.9064 30.5901 55.6759 24.4388 56.9644 17.5596L57.9797 12.1379C58.0492 11.7673 57.9565 11.3869 57.723 11.0888C57.4911 10.7907 57.1416 10.6079 56.764 10.5815L51.2307 10.2143C44.2084 9.74818 37.2805 11.8546 31.7223 16.1449C31.4093 16.387 31.1013 16.6373 30.7982 16.8926L17.2555 20.7579C17.0269 20.8222 16.8215 20.9473 16.6592 21.1186L4.67498 33.7012C4.31393 34.08 4.21125 34.6366 4.41662 35.1192C4.62033 35.6017 5.09235 35.9163 5.61736 35.9245L13.4644 36.0398L14.4697 37.3294L11.0232 38.8396C10.6505 39.0027 10.3723 39.3287 10.2729 39.7224C10.1736 40.116 10.2613 40.5327 10.5114 40.8538L10.6307 41.0053C6.9655 41.5109 3.44443 42.9734 0.512962 45.2346C0.0889757 45.5607 -0.0948621 46.1092 0.0475708 46.623C0.188348 47.1369 0.62724 47.5157 1.16053 47.5815L4.61039 48.0147L1.14563 53.1712C0.829296 53.6422 0.850826 54.2631 1.20028 54.7111C1.54974 55.1591 2.14928 55.3336 2.68755 55.1459L2.68589 55.1443ZM36.156 46.0285L23.8786 52.8155L25.028 48.0608L40.5167 38.6321L36.156 46.0285ZM31.1708 20.1057C31.8581 19.442 32.5902 18.8096 33.3454 18.2266C38.3902 14.3332 44.6788 12.4212 51.0535 12.8444L55.0995 13.1129L54.3576 17.077C53.1883 23.3206 49.7649 28.9037 44.7185 32.7987C43.9633 33.3817 43.1666 33.9285 42.3518 34.4258L26.6511 43.9846L24.1883 45.4833L15.8941 34.8557L22.8766 28.1131L31.1708 20.1041V20.1057ZM13.5903 33.4064L8.67304 33.3339L18.332 23.1904L26.6196 20.8255L17.7722 29.3664L13.5886 33.4047L13.5903 33.4064ZM16.1441 39.4753L19.7497 44.095L18.062 46.231L17.479 45.4833L15.8543 43.4016L13.6449 40.5722L16.1441 39.477V39.4753ZM12.5502 43.4658L14.9699 46.5654C14.1998 49.0094 12.9129 51.2822 11.2236 53.2075L11.4654 51.3003C11.5234 50.8474 11.3395 50.3978 10.9834 50.1096C10.7449 49.9169 10.4501 49.8181 10.1504 49.8181C10.003 49.8181 9.85391 49.8428 9.71148 49.8922L5.55608 51.3464L8.00394 47.705C8.25899 47.3263 8.29874 46.8421 8.10828 46.4254C7.91782 46.0087 7.52364 45.7221 7.06819 45.6661L5.15031 45.4257C7.44746 44.2761 9.97813 43.6009 12.5502 43.4658Z" fill="#271145"/>
</g>
<defs>
<clipPath id="clip0_45_497">
<rect width="58" height="47.8494" fill="white" transform="translate(0 10.1506)"/>
</clipPath>
</defs>
</svg>
