<svg width="58" height="58" viewBox="0 0 58 58" fill="none" xmlns="http://www.w3.org/2000/svg">
<g clip-path="url(#clip0_0_2876)">
<path d="M23.4712 31.0321C23.7901 30.0426 23.2523 28.9829 22.2672 28.6606L18.9271 27.5725L16.1927 24.1887C15.2189 22.9831 13.7715 22.2911 12.226 22.2911H8.582C4.28697 22.2911 1.02984 29.6748 0.133463 31.9382C-0.249618 32.9031 0.22027 33.9969 1.1808 34.3818C1.40914 34.4727 1.64125 34.5163 1.87337 34.5163C2.61877 34.5163 3.32266 34.069 3.61516 33.3315C4.38321 31.3961 5.42866 29.4871 6.40052 28.1071L6.14198 35.4528L3.19056 49.2552C2.94901 50.385 3.66422 51.4959 4.78894 51.7385C4.93613 51.7708 5.08332 51.7859 5.22863 51.7859C6.18916 51.7859 7.05157 51.1149 7.26103 50.1348L10.1766 36.5011H10.9937V49.6969C10.9937 50.8514 11.9259 51.7878 13.0752 51.7878C14.2244 51.7878 15.1567 50.8514 15.1567 49.6969V35.6386L14.9076 28.5677L16.3682 30.3762C16.5965 30.6586 16.9003 30.8691 17.2438 30.9809L21.1104 32.2415C22.0993 32.5695 23.1523 32.0197 23.4712 31.0321Z" fill="#461D7C"/>
<path d="M14.4935 18.5701C15.3737 16.4354 14.3646 13.988 12.2395 13.1038C10.1144 12.2195 7.67815 13.2333 6.79791 15.368C5.91767 17.5027 6.92682 19.9501 9.0519 20.8343C11.177 21.7186 13.6133 20.7048 14.4935 18.5701Z" fill="#461D7C"/>
<path d="M26.0994 31.8889C25.6371 33.3164 24.5407 34.3912 23.1933 34.8557V37.1627C23.1933 37.8072 23.7123 38.3286 24.3614 38.3286H53.2132C53.8549 38.3286 54.3738 37.8072 54.3738 37.1627V10.447C54.3738 9.80244 53.8549 9.28113 53.2132 9.28113H24.3614C23.7123 9.28113 23.1933 9.80244 23.1933 10.447V26.0522C25.571 26.8749 26.8788 29.4682 26.0994 31.8889ZM31.1304 14.8734H46.4367C47.2557 14.8734 47.9218 15.5425 47.9218 16.3653C47.9218 17.188 47.2557 17.8496 46.4367 17.8496H31.1304C30.319 17.8496 29.6528 17.1804 29.6528 16.3653C29.6528 15.5501 30.319 14.8734 31.1304 14.8734ZM31.1304 22.3177H46.4367C47.2557 22.3177 47.9218 22.9869 47.9218 23.8096C47.9218 24.6323 47.2557 25.2939 46.4367 25.2939H31.1304C30.319 25.2939 29.6528 24.6247 29.6528 23.8096C29.6528 22.9944 30.319 22.3177 31.1304 22.3177ZM31.1304 29.7601H46.4367C47.2557 29.7601 47.9218 30.4293 47.9218 31.252C47.9218 32.0747 47.2557 32.7363 46.4367 32.7363H31.1304C30.319 32.7363 29.6528 32.0671 29.6528 31.252C29.6528 30.4369 30.319 29.7601 31.1304 29.7601Z" fill="#BFA0E9"/>
<path d="M31.0342 51.2552C30.5662 50.7604 29.9887 50.3983 29.3396 50.1689C28.3771 50.8324 27.1996 51.2324 25.9484 51.2324C24.6973 51.2324 23.5084 50.8343 22.5347 50.1689C20.8042 50.785 19.5644 52.4153 19.5644 54.3717V57.1261C19.5644 57.6095 19.9494 57.9962 20.4306 57.9962H30.3624C30.2907 57.7175 30.2416 57.4294 30.2416 57.1393V54.3735C30.2416 53.2627 30.5171 52.1992 31.0342 51.2571V51.2552Z" fill="#461D7C"/>
<path d="M25.9428 49.0561C28.0695 49.0561 29.7943 47.3235 29.7943 45.1871C29.7943 43.0506 28.0714 41.318 25.9428 41.318C23.8141 41.318 22.0912 43.0487 22.0912 45.1871C22.0912 47.3254 23.816 49.0561 25.9428 49.0561Z" fill="#461D7C"/>
<path d="M55.0202 50.1671C54.0578 50.8305 52.8803 51.2305 51.6291 51.2305C50.378 51.2305 49.1891 50.8324 48.2267 50.1671C47.5775 50.3964 47.0001 50.7718 46.5434 51.2533C47.0491 52.1954 47.3247 53.2589 47.3247 54.3698V57.1356C47.3247 57.4256 47.2775 57.7156 47.2039 57.9924H57.147C57.6169 57.9924 58 57.6057 58 57.1223V54.3679C58 52.4115 56.7507 50.7813 55.0184 50.1652L55.0202 50.1671Z" fill="#461D7C"/>
<path d="M51.6252 49.0561C53.752 49.0561 55.4768 47.3235 55.4768 45.1871C55.4768 43.0506 53.752 41.318 51.6252 41.318C49.4985 41.318 47.7737 43.0487 47.7737 45.1871C47.7737 47.3254 49.4985 49.0561 51.6252 49.0561Z" fill="#461D7C"/>
<path d="M42.1866 50.1746C41.2185 50.8437 40.0466 51.2399 38.7841 51.2399C37.5217 51.2399 36.3498 50.8456 35.3817 50.1746C33.6531 50.7869 32.4058 52.4228 32.4058 54.3697V57.1355C32.4058 57.6132 32.7907 57.9999 33.2663 57.9999H44.3001C44.7757 57.9999 45.1606 57.6132 45.1606 57.1355V54.3697C45.1606 52.4247 43.9133 50.7869 42.1847 50.1746H42.1866Z" fill="#461D7C"/>
<path d="M38.7841 49.0599C40.9109 49.0599 42.6357 47.3292 42.6357 45.1908C42.6357 43.0525 40.9128 41.3218 38.7841 41.3218C36.6555 41.3218 34.9326 43.0544 34.9326 45.1908C34.9326 47.3273 36.6574 49.0599 38.7841 49.0599Z" fill="#461D7C"/>
</g>
<defs>
<clipPath id="clip0_0_2876">
<rect width="58" height="58" fill="white"/>
</clipPath>
</defs>
</svg>
