<svg width="71" height="71" viewBox="0 0 71 71" fill="none" xmlns="http://www.w3.org/2000/svg">
<g clip-path="url(#clip0_4268_18015)">
<path d="M42.1518 14.6591C40.3825 13.3833 37.9002 13.7595 36.3596 15.3053L35.4777 16.1886L34.427 15.1362C32.5489 13.2551 29.3861 13.4405 27.7611 15.6979C26.4872 17.4699 26.8629 19.9563 28.4034 21.4994L34.8244 27.9306C35.1837 28.2905 35.7635 28.2905 36.1228 27.9306L42.7097 21.333C44.5879 19.4519 44.4028 16.284 42.1463 14.6591H42.1518Z" fill="#BFA0E9"/>
<path d="M18.6808 32.1972C18.1582 32.1972 17.6519 31.9246 17.3716 31.4393C16.9551 30.7169 17.2028 29.7927 17.9241 29.3728L20.725 27.7534C21.4463 27.339 22.3717 27.5871 22.7882 28.3068C23.2046 29.0293 22.9569 29.9535 22.2356 30.3734L19.4348 31.9928C19.198 32.1318 18.9367 32.1972 18.6808 32.1972Z" fill="#BFA0E9"/>
<path d="M19.3156 22.4726H16.0819C15.249 22.4726 14.5713 21.7965 14.5713 20.9623C14.5713 20.128 15.249 19.4519 16.0819 19.4519H19.3156C20.1485 19.4519 20.8262 20.128 20.8262 20.9623C20.8262 21.7965 20.1485 22.4726 19.3156 22.4726Z" fill="#BFA0E9"/>
<path d="M21.4789 14.3702C21.2231 14.3702 20.9618 14.3047 20.725 14.1657L17.9241 12.5463C17.2028 12.1292 16.9551 11.205 17.3716 10.4825C17.788 9.75732 18.7108 9.5065 19.4348 9.92907L22.2356 11.5485C22.9569 11.9656 23.2046 12.8898 22.7882 13.615C22.5078 14.1003 22.0015 14.3729 21.4789 14.3729V14.3702Z" fill="#BFA0E9"/>
<path d="M27.4075 8.43508C26.8849 8.43508 26.3786 8.16518 26.0983 7.6799L24.4815 4.87457C24.065 4.15211 24.3127 3.22791 25.034 2.80806C25.7553 2.39094 26.6808 2.64176 27.0972 3.36149L28.714 6.16682C29.1305 6.88929 28.8828 7.81349 28.1615 8.23061C27.9247 8.36965 27.6634 8.43235 27.4075 8.43235V8.43508Z" fill="#BFA0E9"/>
<path d="M35.497 6.26224C34.6641 6.26224 33.9863 5.58612 33.9863 4.75189V1.51035C33.9863 0.676115 34.6641 0 35.497 0C36.3299 0 37.0076 0.676115 37.0076 1.51035V4.74916C37.0076 5.5834 36.3299 6.25951 35.497 6.25951V6.26224Z" fill="#BFA0E9"/>
<path d="M43.5863 8.43507C43.3305 8.43507 43.0691 8.36964 42.8323 8.2306C42.111 7.81349 41.8633 6.88655 42.2798 6.16409L43.8966 3.36149C44.3131 2.63903 45.2358 2.38821 45.9598 2.80806C46.6811 3.22518 46.9288 4.15211 46.5124 4.87457L44.8955 7.67717C44.6152 8.16245 44.1089 8.43507 43.5863 8.43507Z" fill="#BFA0E9"/>
<path d="M49.5148 14.3702C48.9922 14.3702 48.4859 14.0975 48.2056 13.6123C47.7891 12.8898 48.0368 11.9656 48.7581 11.5457L51.559 9.92635C52.283 9.50923 53.2057 9.75732 53.6222 10.4798C54.0386 11.2022 53.7909 12.1264 53.0696 12.5436L50.2688 14.163C50.032 14.302 49.7707 14.3674 49.5148 14.3674V14.3702Z" fill="#BFA0E9"/>
<path d="M54.9152 22.4699H51.6816C50.8487 22.4699 50.1709 21.7938 50.1709 20.9596C50.1709 20.1253 50.8487 19.4492 51.6816 19.4492H54.9152C55.7481 19.4492 56.4258 20.1253 56.4258 20.9596C56.4258 21.7938 55.7481 22.4699 54.9152 22.4699Z" fill="#BFA0E9"/>
<path d="M52.31 32.1972C52.0541 32.1972 51.7928 32.1318 51.556 31.9928L48.7552 30.3734C48.0339 29.9562 47.7862 29.032 48.2026 28.3068C48.6191 27.5844 49.5418 27.3308 50.2658 27.7534L53.0667 29.3728C53.788 29.7899 54.0357 30.7141 53.6192 31.4393C53.3389 31.9246 52.8326 32.1972 52.31 32.1972Z" fill="#BFA0E9"/>
<path d="M56.5592 37.339C55.2037 36.1694 53.1595 36.3248 51.9946 37.6797L42.1304 48.8084C41.3111 49.7626 40.1162 50.3105 38.8587 50.3105H32.1383C30.8808 50.3105 29.6859 49.7626 28.8666 48.8084L19.0024 37.6797C17.8374 36.3221 15.7933 36.1667 14.4378 37.339C13.0823 38.5085 12.9299 40.5532 14.0948 41.9109L25.0668 54.3727C26.112 55.5613 26.6918 57.0908 26.6918 58.6747V68.7919C26.6918 70.0106 27.6771 71.0002 28.8965 71.0002H42.1032C43.3199 71.0002 44.3079 70.0133 44.3079 68.7919V58.6747C44.3079 57.0908 44.885 55.5613 45.9329 54.3727L56.9049 41.9109C58.0698 40.5532 57.9174 38.5085 56.5619 37.339H56.5592Z" fill="#461D7C"/>
<path d="M35.4967 31.5184C31.1444 31.5184 27.6113 35.0544 27.6113 39.4164C27.6113 43.7784 31.1444 47.3144 35.4967 47.3144C39.849 47.3144 43.382 43.7784 43.382 39.4164C43.382 35.0544 39.8517 31.5184 35.4967 31.5184Z" fill="#461D7C"/>
</g>
<defs>
<clipPath id="clip0_4268_18015">
<rect width="71" height="71.0002" fill="white"/>
</clipPath>
</defs>
</svg>
