<svg width="46" height="30" viewBox="0 0 46 30" fill="none" xmlns="http://www.w3.org/2000/svg">
<path d="M35.6119 30C41.3395 30 45.9996 25.5411 45.9996 20.06C45.9996 17.4507 44.7398 15.0376 42.4519 13.2651C40.4707 11.7299 37.8623 10.8103 35.2261 10.7055C35.1492 10.2689 35.077 9.49697 35.2243 8.43898C35.4456 6.84766 36.2207 4.27016 38.6599 1.03135C38.8269 0.809559 38.8332 0.504961 38.675 0.276802C38.5531 0.100181 38.3544 0 38.1476 0C38.0869 0 38.0251 0.00868625 37.9645 0.0266378C37.823 0.0689109 34.4555 1.09678 31.184 4.08543C29.2582 5.84469 27.7686 7.9207 26.7566 10.2556C25.4963 13.1643 24.9811 16.4778 25.2254 20.1035C25.606 25.7455 30.0715 30 35.6119 30Z" fill="#FDD023"/>
<path d="M0.0592397 20.1035C0.439882 25.7455 4.90478 30 10.4452 30C16.1733 30 20.8329 25.5411 20.8329 20.06C20.8329 17.4507 19.5731 15.0376 17.2852 13.2651C15.304 11.7299 12.6955 10.8103 10.0599 10.7055C9.9831 10.2689 9.9109 9.49697 10.0576 8.43898C10.2788 6.84766 11.0546 4.27016 13.4932 1.03135C13.6607 0.809559 13.6665 0.504961 13.5082 0.276802C13.3864 0.100181 13.1877 0 12.9809 0C12.9202 0 12.8584 0.00868625 12.7983 0.0266378C12.6563 0.0689109 9.28881 1.09678 6.01725 4.08543C4.09151 5.84469 2.60244 7.9207 1.59047 10.2556C0.32956 13.1643 -0.185665 16.4778 0.0592397 20.1035Z" fill="#FDD023"/>
</svg>
