<svg width="58" height="58" viewBox="0 0 58 58" fill="none" xmlns="http://www.w3.org/2000/svg">
<g clip-path="url(#clip0_0_2870)">
<path d="M41.1177 39.6235H4.83878V16.5324H19.7814C19.2291 15.856 18.9289 14.9775 18.9289 14.0249C18.9289 13.1724 19.179 12.344 19.6553 11.6936H2.38137C1.07662 11.6936 0 12.7722 0 14.101V45.5909C0 46.8956 1.07862 47.9722 2.38137 47.9722H18.2025V52.3087H16.1713C13.6899 52.3087 11.6827 54.3379 11.6827 56.7973V56.8213C11.6827 57.4716 12.209 57.9999 12.8614 57.9999H33.069C33.7214 57.9999 34.2477 57.4716 34.2477 56.7973C34.2477 54.3399 32.2426 52.3087 29.7591 52.3087H27.728V47.9722H43.5471C44.8758 47.9722 45.9284 46.8936 45.9284 45.5909V32.9797C44.3495 33.3299 42.7446 33.556 41.1157 33.6061V39.6235H41.1177ZM22.9652 45.4388C22.0387 45.4388 21.3103 44.6864 21.3103 43.7598C21.3103 42.8333 22.0367 42.1049 22.9652 42.1049C23.8938 42.1049 24.6202 42.8573 24.6202 43.7598C24.6202 44.6624 23.8938 45.4388 22.9652 45.4388Z" fill="#BFA0E9"/>
<path d="M39.9659 22.8834C38.9853 22.8834 37.9908 22.7313 37.0522 22.4551L28.009 19.7636V26.2033C28.009 27.2939 28.7254 28.2464 29.762 28.5646L33.6143 29.6952C37.8387 30.952 42.3393 30.952 46.5777 29.6952L50.4299 28.5646C51.4665 28.2464 52.1829 27.2939 52.1829 26.2033V19.6956L42.8916 22.4571C41.939 22.7333 40.9585 22.8854 39.9639 22.8854L39.9659 22.8834Z" fill="#461D7C"/>
<path d="M57.2225 15.0755C58.2591 14.7714 58.2591 13.2945 57.2225 12.9903L42.2719 8.54581C41.5115 8.32369 40.739 8.21362 39.9666 8.21362C39.1941 8.21362 38.4197 8.32369 37.6753 8.54581L22.7247 12.9903C21.6881 13.2945 21.6881 14.7714 22.7247 15.0755L37.6753 19.5201C38.4217 19.7402 39.1941 19.8522 39.9666 19.8522C40.739 19.8522 41.5135 19.7402 42.2719 19.5201L55.1593 15.6879V20.9269H54.9812C54.7171 20.9269 54.505 21.141 54.505 21.4051V23.8425C54.505 24.1067 54.7191 24.3208 54.9812 24.3208H55.0793L54.3028 25.8497C54.1447 26.1578 54.3709 26.526 54.7171 26.526H57.0664C57.4126 26.526 57.6388 26.1578 57.4807 25.8497L56.7042 24.3208H56.8023C57.0664 24.3208 57.2806 24.1067 57.2806 23.8425V21.4051C57.2806 21.141 57.0664 20.9269 56.8023 20.9269H56.6242V15.2516L57.2245 15.0735L57.2225 15.0755Z" fill="#461D7C"/>
</g>
<defs>
<clipPath id="clip0_0_2870">
<rect width="58" height="58" fill="white"/>
</clipPath>
</defs>
</svg>
