<svg width="52" height="52" viewBox="0 0 52 52" fill="none" xmlns="http://www.w3.org/2000/svg">
<path d="M36.8641 31.8424H4.33822V11.1399H17.735C17.2399 10.5335 16.9707 9.74592 16.9707 8.89191C16.9707 8.12762 17.195 7.38485 17.622 6.80176H2.13502C0.965245 6.80176 0 7.76879 0 8.96009V37.1924C0 38.3622 0.967039 39.3274 2.13502 39.3274H16.3195V43.2153H14.4984C12.2737 43.2153 10.4742 45.0345 10.4742 47.2395V47.2611C10.4742 47.8441 10.946 48.3178 11.5309 48.3178H29.6481C30.233 48.3178 30.7048 47.8441 30.7048 47.2395C30.7048 45.0363 28.9071 43.2153 26.6806 43.2153H24.8595V39.3274H39.0422C40.2335 39.3274 41.1772 38.3604 41.1772 37.1924V25.8859C39.7616 26.1998 38.3227 26.4026 36.8623 26.4474V31.8424H36.8641ZM20.5895 37.0561C19.7588 37.0561 19.1058 36.3815 19.1058 35.5508C19.1058 34.7201 19.757 34.0671 20.5895 34.0671C21.422 34.0671 22.0733 34.7417 22.0733 35.5508C22.0733 36.36 21.422 37.0561 20.5895 37.0561Z" fill="#BFA0E9"/>
<path d="M35.8315 16.8341C34.9523 16.8341 34.0607 16.6978 33.2192 16.4502L25.1115 14.0371V19.8106C25.1115 20.7884 25.7538 21.6424 26.6832 21.9276L30.1369 22.9413C33.9243 24.068 37.9593 24.068 41.7593 22.9413L45.213 21.9276C46.1424 21.6424 46.7847 20.7884 46.7847 19.8106V13.9761L38.4545 16.452C37.6005 16.6996 36.7214 16.8359 35.8297 16.8359L35.8315 16.8341Z" fill="#9C7DC5"/>
<path d="M51.3029 9.83394C52.2323 9.56123 52.2323 8.23717 51.3029 7.96446L37.899 3.97971C37.2172 3.78056 36.5247 3.68188 35.8321 3.68188C35.1396 3.68188 34.4453 3.78056 33.7778 3.97971L20.3738 7.96446C19.4445 8.23717 19.4445 9.56123 20.3738 9.83394L33.7778 13.8187C34.447 14.016 35.1396 14.1165 35.8321 14.1165C36.5247 14.1165 37.219 14.016 37.899 13.8187L49.4532 10.3829V15.08H49.2935C49.0567 15.08 48.8665 15.2719 48.8665 15.5088V17.694C48.8665 17.9308 49.0585 18.1228 49.2935 18.1228H49.3814L48.6853 19.4935C48.5436 19.7698 48.7463 20.0999 49.0567 20.0999H51.163C51.4734 20.0999 51.6761 19.7698 51.5344 19.4935L50.8383 18.1228H50.9262C51.163 18.1228 51.355 17.9308 51.355 17.694V15.5088C51.355 15.2719 51.163 15.08 50.9262 15.08H50.7665V9.99182L51.3047 9.83214L51.3029 9.83394Z" fill="#9C7DC5"/>
</svg>
