<svg width="52" height="52" viewBox="0 0 52 52" fill="none" xmlns="http://www.w3.org/2000/svg">
<rect x="18.2614" y="29.988" width="15.4777" height="21.2819" fill="#9C7DC5"/>
<ellipse cx="26.1023" cy="37.6876" rx="5.02505" ry="5.02505" fill="#F7F1FF"/>
<rect x="17.9368" y="16.7502" width="16.122" height="12.9814" fill="#BFA0E9"/>
<rect x="21.4962" y="8.16553" width="9.00321" height="8.58446" fill="#9C7DC5"/>
<path d="M23.0979 4.83689C23.0979 3.23412 24.3972 1.93481 26 1.93481V1.93481C27.6027 1.93481 28.902 3.23412 28.902 4.83688V7.73896H23.0979V4.83689Z" fill="#BFA0E9"/>
<path d="M23.4826 8.19753H22.3319V5.33811C22.3319 4.03344 23.1044 1.56543 26.0292 1.56543C27.1213 1.56543 28.0004 1.90247 28.6397 2.57112C29.6839 3.65835 29.6626 5.21852 29.6626 5.28375V7.99639H28.5118V5.27288C28.5118 5.27288 28.5171 4.11498 27.8139 3.38654C27.3984 2.95708 26.8017 2.73964 26.0292 2.73964C23.5093 2.73964 23.4826 5.23483 23.4826 5.33811V8.19753Z" fill="#271145"/>
<path d="M29.0873 4.75049H22.9073V5.9247H29.0873V4.75049Z" fill="#271145"/>
<path d="M26.5777 0H25.427V2.14728H26.5777V0Z" fill="#271145"/>
<path d="M31.309 16.6615H30.1583V8.78456H21.842V16.6615H20.6913V7.61035H31.309V16.6615Z" fill="#271145"/>
<path d="M34.0631 29.6927H32.9124V17.4994H19.0875V29.6927H17.9368V16.3252H34.0631V29.6927Z" fill="#271145"/>
<path d="M33.3652 51.9999H18.6293C18.2458 51.9999 17.9368 51.7505 17.9368 51.4408V29.0994H34.0578V51.4408C34.0578 51.7505 33.7488 51.9999 33.3652 51.9999ZM19.0875 51.0708H32.9071V30.0285H19.0875V51.0708Z" fill="#271145"/>
<path d="M25.9972 43.31C22.9445 43.31 20.4619 40.7767 20.4619 37.6618C20.4619 34.5469 22.9445 32.0137 25.9972 32.0137C29.0499 32.0137 31.5325 34.5469 31.5325 37.6618C31.5325 40.7767 29.0499 43.31 25.9972 43.31ZM25.9972 33.1933C23.5785 33.1933 21.6127 35.1993 21.6127 37.6673C21.6127 40.1353 23.5785 42.1412 25.9972 42.1412C28.4159 42.1412 30.3817 40.1353 30.3817 37.6673C30.3817 35.1993 28.4159 33.1933 25.9972 33.1933Z" fill="#271145"/>
<path d="M27.8033 39.5586L25.4219 37.9821L25.4379 34.8835L26.5886 34.8944L26.5779 37.3461L28.4266 38.5747L27.8033 39.5586Z" fill="#271145"/>
<path d="M30.4619 27.1542H26.5835V21.7561C26.6421 20.4514 27.4732 19.4512 28.5227 19.4512C29.5722 19.4512 30.4033 20.4514 30.4619 21.7561V27.1542ZM27.7342 25.98H29.3112V21.892C29.3112 21.1418 28.8956 20.6199 28.5227 20.6199C28.1498 20.6199 27.7342 21.1418 27.7342 21.892V25.98Z" fill="#271145"/>
<path d="M25.4168 27.1539H21.5383V21.7559C21.5969 20.4512 22.428 19.4509 23.4775 19.4509C24.5271 19.4509 25.3582 20.4512 25.4168 21.7559V27.1539ZM22.6891 25.9797H24.266V21.8918C24.266 21.1416 23.8505 20.6197 23.4775 20.6197C23.0567 20.6197 22.6891 21.2122 22.6891 21.8918V25.9797Z" fill="#271145"/>
<path d="M27.9419 15.0743H24.0635V12.3943C24.1221 11.0896 24.9532 10.0894 26.0027 10.0894C27.0522 10.0894 27.8833 11.1113 27.9419 12.3943V15.0743ZM25.2089 13.9001H26.7858V12.5302C26.7858 11.78 26.3703 11.2581 25.9974 11.2581C25.5765 11.2581 25.2089 11.8507 25.2089 12.5302V13.9001Z" fill="#271145"/>
</svg>
